<mxfile host="app.diagrams.net" modified="2024-06-01T11:02:14.464Z" agent="Mozilla/5.0 (Macintosh; Intel Mac OS X 10_15_7) AppleWebKit/537.36 (KHTML, like Gecko) Chrome/125.0.0.0 Safari/537.36" etag="ICgsjp_vSIfPTBZRN8YF" version="24.4.13" type="github">
  <diagram id="C5RBs43oDa-KdzZeNtuy" name="Page-1">
    <mxGraphModel dx="2133" dy="1875" grid="1" gridSize="10" guides="1" tooltips="1" connect="1" arrows="1" fold="1" page="1" pageScale="1" pageWidth="827" pageHeight="1169" math="0" shadow="0">
      <root>
        <mxCell id="WIyWlLk6GJQsqaUBKTNV-0" />
        <mxCell id="WIyWlLk6GJQsqaUBKTNV-1" parent="WIyWlLk6GJQsqaUBKTNV-0" />
        <mxCell id="bD7i3Z7t6EMsV-FZN9qI-13" value="" style="edgeStyle=orthogonalEdgeStyle;rounded=0;orthogonalLoop=1;jettySize=auto;html=1;" edge="1" parent="WIyWlLk6GJQsqaUBKTNV-1" source="WIyWlLk6GJQsqaUBKTNV-6" target="bD7i3Z7t6EMsV-FZN9qI-12">
          <mxGeometry relative="1" as="geometry" />
        </mxCell>
        <mxCell id="bD7i3Z7t6EMsV-FZN9qI-194" value="Y" style="edgeLabel;html=1;align=center;verticalAlign=middle;resizable=0;points=[];" vertex="1" connectable="0" parent="bD7i3Z7t6EMsV-FZN9qI-13">
          <mxGeometry x="-0.3168" y="-2" relative="1" as="geometry">
            <mxPoint as="offset" />
          </mxGeometry>
        </mxCell>
        <mxCell id="bD7i3Z7t6EMsV-FZN9qI-193" style="edgeStyle=orthogonalEdgeStyle;rounded=0;orthogonalLoop=1;jettySize=auto;html=1;entryX=1;entryY=0.5;entryDx=0;entryDy=0;exitX=1;exitY=0.5;exitDx=0;exitDy=0;" edge="1" parent="WIyWlLk6GJQsqaUBKTNV-1" source="WIyWlLk6GJQsqaUBKTNV-6" target="bD7i3Z7t6EMsV-FZN9qI-188">
          <mxGeometry relative="1" as="geometry">
            <Array as="points">
              <mxPoint x="410" y="359" />
              <mxPoint x="410" y="222" />
            </Array>
          </mxGeometry>
        </mxCell>
        <mxCell id="bD7i3Z7t6EMsV-FZN9qI-197" value="N" style="edgeLabel;html=1;align=center;verticalAlign=middle;resizable=0;points=[];" vertex="1" connectable="0" parent="bD7i3Z7t6EMsV-FZN9qI-193">
          <mxGeometry x="-0.7981" relative="1" as="geometry">
            <mxPoint as="offset" />
          </mxGeometry>
        </mxCell>
        <mxCell id="WIyWlLk6GJQsqaUBKTNV-6" value="通过手机号&lt;br&gt;过滤规则?" style="rhombus;whiteSpace=wrap;html=1;shadow=0;fontFamily=Helvetica;fontSize=12;align=center;strokeWidth=1;spacing=6;spacingTop=-4;" parent="WIyWlLk6GJQsqaUBKTNV-1" vertex="1">
          <mxGeometry x="180" y="319" width="100" height="80" as="geometry" />
        </mxCell>
        <mxCell id="bD7i3Z7t6EMsV-FZN9qI-18" value="" style="edgeStyle=orthogonalEdgeStyle;rounded=0;orthogonalLoop=1;jettySize=auto;html=1;" edge="1" parent="WIyWlLk6GJQsqaUBKTNV-1" source="bD7i3Z7t6EMsV-FZN9qI-12" target="bD7i3Z7t6EMsV-FZN9qI-17">
          <mxGeometry relative="1" as="geometry" />
        </mxCell>
        <mxCell id="bD7i3Z7t6EMsV-FZN9qI-19" value="Y" style="edgeLabel;html=1;align=center;verticalAlign=middle;resizable=0;points=[];" vertex="1" connectable="0" parent="bD7i3Z7t6EMsV-FZN9qI-18">
          <mxGeometry x="-0.2" y="-1" relative="1" as="geometry">
            <mxPoint as="offset" />
          </mxGeometry>
        </mxCell>
        <mxCell id="bD7i3Z7t6EMsV-FZN9qI-195" style="edgeStyle=orthogonalEdgeStyle;rounded=0;orthogonalLoop=1;jettySize=auto;html=1;entryX=1;entryY=0.5;entryDx=0;entryDy=0;exitX=1;exitY=0.5;exitDx=0;exitDy=0;" edge="1" parent="WIyWlLk6GJQsqaUBKTNV-1" source="bD7i3Z7t6EMsV-FZN9qI-12" target="bD7i3Z7t6EMsV-FZN9qI-188">
          <mxGeometry relative="1" as="geometry">
            <Array as="points">
              <mxPoint x="410" y="536" />
              <mxPoint x="410" y="222" />
            </Array>
          </mxGeometry>
        </mxCell>
        <mxCell id="bD7i3Z7t6EMsV-FZN9qI-196" value="N" style="edgeLabel;html=1;align=center;verticalAlign=middle;resizable=0;points=[];" vertex="1" connectable="0" parent="bD7i3Z7t6EMsV-FZN9qI-195">
          <mxGeometry x="-0.8674" relative="1" as="geometry">
            <mxPoint as="offset" />
          </mxGeometry>
        </mxCell>
        <mxCell id="bD7i3Z7t6EMsV-FZN9qI-12" value="通过手机号&lt;br&gt;黑名单bitmap?" style="rhombus;whiteSpace=wrap;html=1;shadow=0;fontFamily=Helvetica;fontSize=12;align=center;strokeWidth=1;spacing=6;spacingTop=-4;" vertex="1" parent="WIyWlLk6GJQsqaUBKTNV-1">
          <mxGeometry x="180" y="496" width="100" height="80" as="geometry" />
        </mxCell>
        <mxCell id="bD7i3Z7t6EMsV-FZN9qI-171" style="edgeStyle=orthogonalEdgeStyle;rounded=0;orthogonalLoop=1;jettySize=auto;html=1;entryX=0.5;entryY=0;entryDx=0;entryDy=0;" edge="1" parent="WIyWlLk6GJQsqaUBKTNV-1" source="bD7i3Z7t6EMsV-FZN9qI-17" target="bD7i3Z7t6EMsV-FZN9qI-170">
          <mxGeometry relative="1" as="geometry" />
        </mxCell>
        <mxCell id="bD7i3Z7t6EMsV-FZN9qI-17" value="分批写本地文件" style="strokeWidth=2;html=1;shape=mxgraph.flowchart.document2;whiteSpace=wrap;size=0.25;direction=east;" vertex="1" parent="WIyWlLk6GJQsqaUBKTNV-1">
          <mxGeometry x="180" y="645" width="100" height="60" as="geometry" />
        </mxCell>
        <mxCell id="bD7i3Z7t6EMsV-FZN9qI-22" value="分群表" style="shape=datastore;whiteSpace=wrap;html=1;" vertex="1" parent="WIyWlLk6GJQsqaUBKTNV-1">
          <mxGeometry x="50" y="1260" width="60" height="60" as="geometry" />
        </mxCell>
        <mxCell id="bD7i3Z7t6EMsV-FZN9qI-26" value="数据包表" style="shape=datastore;whiteSpace=wrap;html=1;" vertex="1" parent="WIyWlLk6GJQsqaUBKTNV-1">
          <mxGeometry x="354" y="1260" width="60" height="60" as="geometry" />
        </mxCell>
        <mxCell id="bD7i3Z7t6EMsV-FZN9qI-200" value="" style="edgeStyle=orthogonalEdgeStyle;rounded=0;orthogonalLoop=1;jettySize=auto;html=1;" edge="1" parent="WIyWlLk6GJQsqaUBKTNV-1" source="bD7i3Z7t6EMsV-FZN9qI-32" target="bD7i3Z7t6EMsV-FZN9qI-175">
          <mxGeometry relative="1" as="geometry" />
        </mxCell>
        <mxCell id="bD7i3Z7t6EMsV-FZN9qI-32" value="手机号更新任务" style="strokeWidth=2;html=1;shape=mxgraph.flowchart.terminator;whiteSpace=wrap;" vertex="1" parent="WIyWlLk6GJQsqaUBKTNV-1">
          <mxGeometry x="170" y="-170" width="100" height="60" as="geometry" />
        </mxCell>
        <mxCell id="bD7i3Z7t6EMsV-FZN9qI-35" value="结束" style="strokeWidth=2;html=1;shape=mxgraph.flowchart.terminator;whiteSpace=wrap;" vertex="1" parent="WIyWlLk6GJQsqaUBKTNV-1">
          <mxGeometry x="180" y="1440" width="100" height="60" as="geometry" />
        </mxCell>
        <mxCell id="bD7i3Z7t6EMsV-FZN9qI-75" style="edgeStyle=orthogonalEdgeStyle;rounded=0;orthogonalLoop=1;jettySize=auto;html=1;entryX=0;entryY=0.5;entryDx=0;entryDy=0;" edge="1" parent="WIyWlLk6GJQsqaUBKTNV-1" source="bD7i3Z7t6EMsV-FZN9qI-74" target="bD7i3Z7t6EMsV-FZN9qI-12">
          <mxGeometry relative="1" as="geometry" />
        </mxCell>
        <mxCell id="bD7i3Z7t6EMsV-FZN9qI-76" value="变更同步" style="edgeLabel;html=1;align=center;verticalAlign=middle;resizable=0;points=[];" vertex="1" connectable="0" parent="bD7i3Z7t6EMsV-FZN9qI-75">
          <mxGeometry x="-0.0833" y="-3" relative="1" as="geometry">
            <mxPoint y="-3" as="offset" />
          </mxGeometry>
        </mxCell>
        <mxCell id="bD7i3Z7t6EMsV-FZN9qI-74" value="黑名单表" style="shape=datastore;whiteSpace=wrap;html=1;" vertex="1" parent="WIyWlLk6GJQsqaUBKTNV-1">
          <mxGeometry x="-10" y="506" width="60" height="60" as="geometry" />
        </mxCell>
        <mxCell id="bD7i3Z7t6EMsV-FZN9qI-198" style="edgeStyle=orthogonalEdgeStyle;rounded=0;orthogonalLoop=1;jettySize=auto;html=1;entryX=1;entryY=0.5;entryDx=0;entryDy=0;exitX=1;exitY=0.5;exitDx=0;exitDy=0;" edge="1" parent="WIyWlLk6GJQsqaUBKTNV-1" source="bD7i3Z7t6EMsV-FZN9qI-170" target="bD7i3Z7t6EMsV-FZN9qI-188">
          <mxGeometry relative="1" as="geometry">
            <Array as="points">
              <mxPoint x="410" y="795" />
              <mxPoint x="410" y="222" />
            </Array>
          </mxGeometry>
        </mxCell>
        <mxCell id="bD7i3Z7t6EMsV-FZN9qI-199" value="Y" style="edgeLabel;html=1;align=center;verticalAlign=middle;resizable=0;points=[];" vertex="1" connectable="0" parent="bD7i3Z7t6EMsV-FZN9qI-198">
          <mxGeometry x="-0.9017" relative="1" as="geometry">
            <mxPoint as="offset" />
          </mxGeometry>
        </mxCell>
        <mxCell id="bD7i3Z7t6EMsV-FZN9qI-207" value="" style="edgeStyle=orthogonalEdgeStyle;rounded=0;orthogonalLoop=1;jettySize=auto;html=1;" edge="1" parent="WIyWlLk6GJQsqaUBKTNV-1" source="bD7i3Z7t6EMsV-FZN9qI-170" target="bD7i3Z7t6EMsV-FZN9qI-206">
          <mxGeometry relative="1" as="geometry" />
        </mxCell>
        <mxCell id="bD7i3Z7t6EMsV-FZN9qI-170" value="是否&lt;br&gt;处理完？" style="rhombus;whiteSpace=wrap;html=1;shadow=0;fontFamily=Helvetica;fontSize=12;align=center;strokeWidth=1;spacing=6;spacingTop=-4;" vertex="1" parent="WIyWlLk6GJQsqaUBKTNV-1">
          <mxGeometry x="180" y="755" width="100" height="80" as="geometry" />
        </mxCell>
        <mxCell id="bD7i3Z7t6EMsV-FZN9qI-177" style="edgeStyle=orthogonalEdgeStyle;rounded=0;orthogonalLoop=1;jettySize=auto;html=1;exitX=0;exitY=0.5;exitDx=0;exitDy=0;entryX=0.5;entryY=0;entryDx=0;entryDy=0;" edge="1" parent="WIyWlLk6GJQsqaUBKTNV-1" source="bD7i3Z7t6EMsV-FZN9qI-175" target="bD7i3Z7t6EMsV-FZN9qI-176">
          <mxGeometry relative="1" as="geometry" />
        </mxCell>
        <mxCell id="bD7i3Z7t6EMsV-FZN9qI-178" value="分群" style="edgeLabel;html=1;align=center;verticalAlign=middle;resizable=0;points=[];" vertex="1" connectable="0" parent="bD7i3Z7t6EMsV-FZN9qI-177">
          <mxGeometry x="-0.1" y="3" relative="1" as="geometry">
            <mxPoint y="-3" as="offset" />
          </mxGeometry>
        </mxCell>
        <mxCell id="bD7i3Z7t6EMsV-FZN9qI-175" value="分群or数据包?" style="rhombus;whiteSpace=wrap;html=1;shadow=0;fontFamily=Helvetica;fontSize=12;align=center;strokeWidth=1;spacing=6;spacingTop=-4;" vertex="1" parent="WIyWlLk6GJQsqaUBKTNV-1">
          <mxGeometry x="170" y="-50" width="100" height="80" as="geometry" />
        </mxCell>
        <mxCell id="bD7i3Z7t6EMsV-FZN9qI-189" style="edgeStyle=orthogonalEdgeStyle;rounded=0;orthogonalLoop=1;jettySize=auto;html=1;entryX=0.5;entryY=0;entryDx=0;entryDy=0;" edge="1" parent="WIyWlLk6GJQsqaUBKTNV-1" source="bD7i3Z7t6EMsV-FZN9qI-176" target="bD7i3Z7t6EMsV-FZN9qI-188">
          <mxGeometry relative="1" as="geometry" />
        </mxCell>
        <mxCell id="bD7i3Z7t6EMsV-FZN9qI-176" value="大数据" style="shape=datastore;whiteSpace=wrap;html=1;" vertex="1" parent="WIyWlLk6GJQsqaUBKTNV-1">
          <mxGeometry x="40" y="70" width="60" height="60" as="geometry" />
        </mxCell>
        <mxCell id="bD7i3Z7t6EMsV-FZN9qI-190" style="edgeStyle=orthogonalEdgeStyle;rounded=0;orthogonalLoop=1;jettySize=auto;html=1;entryX=0.5;entryY=0;entryDx=0;entryDy=0;" edge="1" parent="WIyWlLk6GJQsqaUBKTNV-1" source="bD7i3Z7t6EMsV-FZN9qI-179" target="bD7i3Z7t6EMsV-FZN9qI-188">
          <mxGeometry relative="1" as="geometry" />
        </mxCell>
        <mxCell id="bD7i3Z7t6EMsV-FZN9qI-179" value="Excel" style="strokeWidth=2;html=1;shape=mxgraph.flowchart.multi-document;whiteSpace=wrap;" vertex="1" parent="WIyWlLk6GJQsqaUBKTNV-1">
          <mxGeometry x="340" y="70" width="88" height="60" as="geometry" />
        </mxCell>
        <mxCell id="bD7i3Z7t6EMsV-FZN9qI-180" style="edgeStyle=orthogonalEdgeStyle;rounded=0;orthogonalLoop=1;jettySize=auto;html=1;entryX=0.5;entryY=0;entryDx=0;entryDy=0;entryPerimeter=0;" edge="1" parent="WIyWlLk6GJQsqaUBKTNV-1" source="bD7i3Z7t6EMsV-FZN9qI-175" target="bD7i3Z7t6EMsV-FZN9qI-179">
          <mxGeometry relative="1" as="geometry" />
        </mxCell>
        <mxCell id="bD7i3Z7t6EMsV-FZN9qI-181" value="数据包" style="edgeLabel;html=1;align=center;verticalAlign=middle;resizable=0;points=[];" vertex="1" connectable="0" parent="bD7i3Z7t6EMsV-FZN9qI-180">
          <mxGeometry x="-0.2826" y="-2" relative="1" as="geometry">
            <mxPoint y="-2" as="offset" />
          </mxGeometry>
        </mxCell>
        <mxCell id="bD7i3Z7t6EMsV-FZN9qI-191" style="edgeStyle=orthogonalEdgeStyle;rounded=0;orthogonalLoop=1;jettySize=auto;html=1;entryX=0.5;entryY=0;entryDx=0;entryDy=0;" edge="1" parent="WIyWlLk6GJQsqaUBKTNV-1" source="bD7i3Z7t6EMsV-FZN9qI-188" target="WIyWlLk6GJQsqaUBKTNV-6">
          <mxGeometry relative="1" as="geometry" />
        </mxCell>
        <mxCell id="bD7i3Z7t6EMsV-FZN9qI-188" value="取一个&lt;br&gt;手机号" style="shape=cylinder;whiteSpace=wrap;html=1;boundedLbl=1;backgroundOutline=1;" vertex="1" parent="WIyWlLk6GJQsqaUBKTNV-1">
          <mxGeometry x="200" y="182" width="60" height="80" as="geometry" />
        </mxCell>
        <mxCell id="bD7i3Z7t6EMsV-FZN9qI-204" style="edgeStyle=orthogonalEdgeStyle;rounded=0;orthogonalLoop=1;jettySize=auto;html=1;exitX=0;exitY=0.5;exitDx=0;exitDy=0;entryX=0.5;entryY=0;entryDx=0;entryDy=0;" edge="1" parent="WIyWlLk6GJQsqaUBKTNV-1" source="bD7i3Z7t6EMsV-FZN9qI-201" target="bD7i3Z7t6EMsV-FZN9qI-22">
          <mxGeometry relative="1" as="geometry" />
        </mxCell>
        <mxCell id="bD7i3Z7t6EMsV-FZN9qI-211" value="分群" style="edgeLabel;html=1;align=center;verticalAlign=middle;resizable=0;points=[];" vertex="1" connectable="0" parent="bD7i3Z7t6EMsV-FZN9qI-204">
          <mxGeometry x="-0.3727" y="3" relative="1" as="geometry">
            <mxPoint y="-4" as="offset" />
          </mxGeometry>
        </mxCell>
        <mxCell id="bD7i3Z7t6EMsV-FZN9qI-205" style="edgeStyle=orthogonalEdgeStyle;rounded=0;orthogonalLoop=1;jettySize=auto;html=1;" edge="1" parent="WIyWlLk6GJQsqaUBKTNV-1" source="bD7i3Z7t6EMsV-FZN9qI-201" target="bD7i3Z7t6EMsV-FZN9qI-26">
          <mxGeometry relative="1" as="geometry" />
        </mxCell>
        <mxCell id="bD7i3Z7t6EMsV-FZN9qI-212" value="数据包" style="edgeLabel;html=1;align=center;verticalAlign=middle;resizable=0;points=[];" vertex="1" connectable="0" parent="bD7i3Z7t6EMsV-FZN9qI-205">
          <mxGeometry x="-0.5982" y="3" relative="1" as="geometry">
            <mxPoint y="2" as="offset" />
          </mxGeometry>
        </mxCell>
        <mxCell id="bD7i3Z7t6EMsV-FZN9qI-201" value="分群or数据包?" style="rhombus;whiteSpace=wrap;html=1;shadow=0;fontFamily=Helvetica;fontSize=12;align=center;strokeWidth=1;spacing=6;spacingTop=-4;" vertex="1" parent="WIyWlLk6GJQsqaUBKTNV-1">
          <mxGeometry x="180" y="1100" width="100" height="80" as="geometry" />
        </mxCell>
        <mxCell id="bD7i3Z7t6EMsV-FZN9qI-208" value="" style="edgeStyle=orthogonalEdgeStyle;rounded=0;orthogonalLoop=1;jettySize=auto;html=1;" edge="1" parent="WIyWlLk6GJQsqaUBKTNV-1" source="bD7i3Z7t6EMsV-FZN9qI-206" target="bD7i3Z7t6EMsV-FZN9qI-201">
          <mxGeometry relative="1" as="geometry" />
        </mxCell>
        <mxCell id="bD7i3Z7t6EMsV-FZN9qI-206" value="Amazon S3" style="sketch=0;outlineConnect=0;fontColor=#232F3E;gradientColor=none;strokeColor=#ffffff;fillColor=#232F3E;dashed=0;verticalLabelPosition=middle;verticalAlign=bottom;align=center;html=1;whiteSpace=wrap;fontSize=10;fontStyle=1;spacing=3;shape=mxgraph.aws4.productIcon;prIcon=mxgraph.aws4.s3;" vertex="1" parent="WIyWlLk6GJQsqaUBKTNV-1">
          <mxGeometry x="190" y="905" width="80" height="100" as="geometry" />
        </mxCell>
        <mxCell id="bD7i3Z7t6EMsV-FZN9qI-209" style="edgeStyle=orthogonalEdgeStyle;rounded=0;orthogonalLoop=1;jettySize=auto;html=1;entryX=0.5;entryY=0;entryDx=0;entryDy=0;entryPerimeter=0;" edge="1" parent="WIyWlLk6GJQsqaUBKTNV-1" source="bD7i3Z7t6EMsV-FZN9qI-22" target="bD7i3Z7t6EMsV-FZN9qI-35">
          <mxGeometry relative="1" as="geometry" />
        </mxCell>
        <mxCell id="bD7i3Z7t6EMsV-FZN9qI-210" style="edgeStyle=orthogonalEdgeStyle;rounded=0;orthogonalLoop=1;jettySize=auto;html=1;entryX=0.5;entryY=0;entryDx=0;entryDy=0;entryPerimeter=0;" edge="1" parent="WIyWlLk6GJQsqaUBKTNV-1" source="bD7i3Z7t6EMsV-FZN9qI-26" target="bD7i3Z7t6EMsV-FZN9qI-35">
          <mxGeometry relative="1" as="geometry" />
        </mxCell>
        <mxCell id="bD7i3Z7t6EMsV-FZN9qI-213" value="" style="edgeStyle=orthogonalEdgeStyle;rounded=0;orthogonalLoop=1;jettySize=auto;html=1;" edge="1" parent="WIyWlLk6GJQsqaUBKTNV-1" source="bD7i3Z7t6EMsV-FZN9qI-217" target="bD7i3Z7t6EMsV-FZN9qI-222">
          <mxGeometry relative="1" as="geometry" />
        </mxCell>
        <mxCell id="bD7i3Z7t6EMsV-FZN9qI-214" value="Y" style="edgeLabel;html=1;align=center;verticalAlign=middle;resizable=0;points=[];" vertex="1" connectable="0" parent="bD7i3Z7t6EMsV-FZN9qI-213">
          <mxGeometry x="-0.3168" y="-2" relative="1" as="geometry">
            <mxPoint as="offset" />
          </mxGeometry>
        </mxCell>
        <mxCell id="bD7i3Z7t6EMsV-FZN9qI-215" style="edgeStyle=orthogonalEdgeStyle;rounded=0;orthogonalLoop=1;jettySize=auto;html=1;entryX=1;entryY=0.5;entryDx=0;entryDy=0;exitX=1;exitY=0.5;exitDx=0;exitDy=0;" edge="1" parent="WIyWlLk6GJQsqaUBKTNV-1" source="bD7i3Z7t6EMsV-FZN9qI-217" target="bD7i3Z7t6EMsV-FZN9qI-247">
          <mxGeometry relative="1" as="geometry">
            <Array as="points">
              <mxPoint x="1000" y="359" />
              <mxPoint x="1000" y="222" />
            </Array>
          </mxGeometry>
        </mxCell>
        <mxCell id="bD7i3Z7t6EMsV-FZN9qI-216" value="N" style="edgeLabel;html=1;align=center;verticalAlign=middle;resizable=0;points=[];" vertex="1" connectable="0" parent="bD7i3Z7t6EMsV-FZN9qI-215">
          <mxGeometry x="-0.7981" relative="1" as="geometry">
            <mxPoint as="offset" />
          </mxGeometry>
        </mxCell>
        <mxCell id="bD7i3Z7t6EMsV-FZN9qI-217" value="通过邮箱&lt;br&gt;过滤规则?" style="rhombus;whiteSpace=wrap;html=1;shadow=0;fontFamily=Helvetica;fontSize=12;align=center;strokeWidth=1;spacing=6;spacingTop=-4;" vertex="1" parent="WIyWlLk6GJQsqaUBKTNV-1">
          <mxGeometry x="770" y="319" width="100" height="80" as="geometry" />
        </mxCell>
        <mxCell id="bD7i3Z7t6EMsV-FZN9qI-218" value="" style="edgeStyle=orthogonalEdgeStyle;rounded=0;orthogonalLoop=1;jettySize=auto;html=1;" edge="1" parent="WIyWlLk6GJQsqaUBKTNV-1" source="bD7i3Z7t6EMsV-FZN9qI-222" target="bD7i3Z7t6EMsV-FZN9qI-224">
          <mxGeometry relative="1" as="geometry" />
        </mxCell>
        <mxCell id="bD7i3Z7t6EMsV-FZN9qI-219" value="Y" style="edgeLabel;html=1;align=center;verticalAlign=middle;resizable=0;points=[];" vertex="1" connectable="0" parent="bD7i3Z7t6EMsV-FZN9qI-218">
          <mxGeometry x="-0.2" y="-1" relative="1" as="geometry">
            <mxPoint as="offset" />
          </mxGeometry>
        </mxCell>
        <mxCell id="bD7i3Z7t6EMsV-FZN9qI-220" style="edgeStyle=orthogonalEdgeStyle;rounded=0;orthogonalLoop=1;jettySize=auto;html=1;entryX=1;entryY=0.5;entryDx=0;entryDy=0;exitX=1;exitY=0.5;exitDx=0;exitDy=0;" edge="1" parent="WIyWlLk6GJQsqaUBKTNV-1" source="bD7i3Z7t6EMsV-FZN9qI-222" target="bD7i3Z7t6EMsV-FZN9qI-247">
          <mxGeometry relative="1" as="geometry">
            <Array as="points">
              <mxPoint x="1000" y="536" />
              <mxPoint x="1000" y="222" />
            </Array>
          </mxGeometry>
        </mxCell>
        <mxCell id="bD7i3Z7t6EMsV-FZN9qI-221" value="N" style="edgeLabel;html=1;align=center;verticalAlign=middle;resizable=0;points=[];" vertex="1" connectable="0" parent="bD7i3Z7t6EMsV-FZN9qI-220">
          <mxGeometry x="-0.8674" relative="1" as="geometry">
            <mxPoint as="offset" />
          </mxGeometry>
        </mxCell>
        <mxCell id="bD7i3Z7t6EMsV-FZN9qI-222" value="通过邮箱&lt;br&gt;黑名单bitmap?" style="rhombus;whiteSpace=wrap;html=1;shadow=0;fontFamily=Helvetica;fontSize=12;align=center;strokeWidth=1;spacing=6;spacingTop=-4;" vertex="1" parent="WIyWlLk6GJQsqaUBKTNV-1">
          <mxGeometry x="770" y="496" width="100" height="80" as="geometry" />
        </mxCell>
        <mxCell id="bD7i3Z7t6EMsV-FZN9qI-223" style="edgeStyle=orthogonalEdgeStyle;rounded=0;orthogonalLoop=1;jettySize=auto;html=1;entryX=0.5;entryY=0;entryDx=0;entryDy=0;" edge="1" parent="WIyWlLk6GJQsqaUBKTNV-1" source="bD7i3Z7t6EMsV-FZN9qI-224" target="bD7i3Z7t6EMsV-FZN9qI-236">
          <mxGeometry relative="1" as="geometry" />
        </mxCell>
        <mxCell id="bD7i3Z7t6EMsV-FZN9qI-224" value="分批写本地文件" style="strokeWidth=2;html=1;shape=mxgraph.flowchart.document2;whiteSpace=wrap;size=0.25;direction=east;" vertex="1" parent="WIyWlLk6GJQsqaUBKTNV-1">
          <mxGeometry x="770" y="645" width="100" height="60" as="geometry" />
        </mxCell>
        <mxCell id="bD7i3Z7t6EMsV-FZN9qI-225" value="分群表" style="shape=datastore;whiteSpace=wrap;html=1;" vertex="1" parent="WIyWlLk6GJQsqaUBKTNV-1">
          <mxGeometry x="640" y="1260" width="60" height="60" as="geometry" />
        </mxCell>
        <mxCell id="bD7i3Z7t6EMsV-FZN9qI-226" value="数据包表" style="shape=datastore;whiteSpace=wrap;html=1;" vertex="1" parent="WIyWlLk6GJQsqaUBKTNV-1">
          <mxGeometry x="944" y="1260" width="60" height="60" as="geometry" />
        </mxCell>
        <mxCell id="bD7i3Z7t6EMsV-FZN9qI-227" value="" style="edgeStyle=orthogonalEdgeStyle;rounded=0;orthogonalLoop=1;jettySize=auto;html=1;" edge="1" parent="WIyWlLk6GJQsqaUBKTNV-1" source="bD7i3Z7t6EMsV-FZN9qI-228" target="bD7i3Z7t6EMsV-FZN9qI-239">
          <mxGeometry relative="1" as="geometry" />
        </mxCell>
        <mxCell id="bD7i3Z7t6EMsV-FZN9qI-228" value="邮箱更新任务" style="strokeWidth=2;html=1;shape=mxgraph.flowchart.terminator;whiteSpace=wrap;" vertex="1" parent="WIyWlLk6GJQsqaUBKTNV-1">
          <mxGeometry x="760" y="-170" width="100" height="60" as="geometry" />
        </mxCell>
        <mxCell id="bD7i3Z7t6EMsV-FZN9qI-229" value="结束" style="strokeWidth=2;html=1;shape=mxgraph.flowchart.terminator;whiteSpace=wrap;" vertex="1" parent="WIyWlLk6GJQsqaUBKTNV-1">
          <mxGeometry x="770" y="1440" width="100" height="60" as="geometry" />
        </mxCell>
        <mxCell id="bD7i3Z7t6EMsV-FZN9qI-230" style="edgeStyle=orthogonalEdgeStyle;rounded=0;orthogonalLoop=1;jettySize=auto;html=1;entryX=0;entryY=0.5;entryDx=0;entryDy=0;" edge="1" parent="WIyWlLk6GJQsqaUBKTNV-1" source="bD7i3Z7t6EMsV-FZN9qI-232" target="bD7i3Z7t6EMsV-FZN9qI-222">
          <mxGeometry relative="1" as="geometry" />
        </mxCell>
        <mxCell id="bD7i3Z7t6EMsV-FZN9qI-231" value="变更同步" style="edgeLabel;html=1;align=center;verticalAlign=middle;resizable=0;points=[];" vertex="1" connectable="0" parent="bD7i3Z7t6EMsV-FZN9qI-230">
          <mxGeometry x="-0.0833" y="-3" relative="1" as="geometry">
            <mxPoint y="-3" as="offset" />
          </mxGeometry>
        </mxCell>
        <mxCell id="bD7i3Z7t6EMsV-FZN9qI-232" value="黑名单表" style="shape=datastore;whiteSpace=wrap;html=1;" vertex="1" parent="WIyWlLk6GJQsqaUBKTNV-1">
          <mxGeometry x="580" y="506" width="60" height="60" as="geometry" />
        </mxCell>
        <mxCell id="bD7i3Z7t6EMsV-FZN9qI-233" style="edgeStyle=orthogonalEdgeStyle;rounded=0;orthogonalLoop=1;jettySize=auto;html=1;entryX=1;entryY=0.5;entryDx=0;entryDy=0;exitX=1;exitY=0.5;exitDx=0;exitDy=0;" edge="1" parent="WIyWlLk6GJQsqaUBKTNV-1" source="bD7i3Z7t6EMsV-FZN9qI-236" target="bD7i3Z7t6EMsV-FZN9qI-247">
          <mxGeometry relative="1" as="geometry">
            <Array as="points">
              <mxPoint x="1000" y="795" />
              <mxPoint x="1000" y="222" />
            </Array>
          </mxGeometry>
        </mxCell>
        <mxCell id="bD7i3Z7t6EMsV-FZN9qI-234" value="Y" style="edgeLabel;html=1;align=center;verticalAlign=middle;resizable=0;points=[];" vertex="1" connectable="0" parent="bD7i3Z7t6EMsV-FZN9qI-233">
          <mxGeometry x="-0.9017" relative="1" as="geometry">
            <mxPoint as="offset" />
          </mxGeometry>
        </mxCell>
        <mxCell id="bD7i3Z7t6EMsV-FZN9qI-235" value="" style="edgeStyle=orthogonalEdgeStyle;rounded=0;orthogonalLoop=1;jettySize=auto;html=1;" edge="1" parent="WIyWlLk6GJQsqaUBKTNV-1" source="bD7i3Z7t6EMsV-FZN9qI-236" target="bD7i3Z7t6EMsV-FZN9qI-254">
          <mxGeometry relative="1" as="geometry" />
        </mxCell>
        <mxCell id="bD7i3Z7t6EMsV-FZN9qI-236" value="是否&lt;br&gt;处理完？" style="rhombus;whiteSpace=wrap;html=1;shadow=0;fontFamily=Helvetica;fontSize=12;align=center;strokeWidth=1;spacing=6;spacingTop=-4;" vertex="1" parent="WIyWlLk6GJQsqaUBKTNV-1">
          <mxGeometry x="770" y="755" width="100" height="80" as="geometry" />
        </mxCell>
        <mxCell id="bD7i3Z7t6EMsV-FZN9qI-237" style="edgeStyle=orthogonalEdgeStyle;rounded=0;orthogonalLoop=1;jettySize=auto;html=1;exitX=0;exitY=0.5;exitDx=0;exitDy=0;entryX=0.5;entryY=0;entryDx=0;entryDy=0;" edge="1" parent="WIyWlLk6GJQsqaUBKTNV-1" source="bD7i3Z7t6EMsV-FZN9qI-239" target="bD7i3Z7t6EMsV-FZN9qI-241">
          <mxGeometry relative="1" as="geometry" />
        </mxCell>
        <mxCell id="bD7i3Z7t6EMsV-FZN9qI-238" value="分群" style="edgeLabel;html=1;align=center;verticalAlign=middle;resizable=0;points=[];" vertex="1" connectable="0" parent="bD7i3Z7t6EMsV-FZN9qI-237">
          <mxGeometry x="-0.1" y="3" relative="1" as="geometry">
            <mxPoint y="-3" as="offset" />
          </mxGeometry>
        </mxCell>
        <mxCell id="bD7i3Z7t6EMsV-FZN9qI-239" value="分群or数据包?" style="rhombus;whiteSpace=wrap;html=1;shadow=0;fontFamily=Helvetica;fontSize=12;align=center;strokeWidth=1;spacing=6;spacingTop=-4;" vertex="1" parent="WIyWlLk6GJQsqaUBKTNV-1">
          <mxGeometry x="760" y="-50" width="100" height="80" as="geometry" />
        </mxCell>
        <mxCell id="bD7i3Z7t6EMsV-FZN9qI-240" style="edgeStyle=orthogonalEdgeStyle;rounded=0;orthogonalLoop=1;jettySize=auto;html=1;entryX=0.5;entryY=0;entryDx=0;entryDy=0;" edge="1" parent="WIyWlLk6GJQsqaUBKTNV-1" source="bD7i3Z7t6EMsV-FZN9qI-241" target="bD7i3Z7t6EMsV-FZN9qI-247">
          <mxGeometry relative="1" as="geometry" />
        </mxCell>
        <mxCell id="bD7i3Z7t6EMsV-FZN9qI-241" value="大数据" style="shape=datastore;whiteSpace=wrap;html=1;" vertex="1" parent="WIyWlLk6GJQsqaUBKTNV-1">
          <mxGeometry x="630" y="70" width="60" height="60" as="geometry" />
        </mxCell>
        <mxCell id="bD7i3Z7t6EMsV-FZN9qI-242" style="edgeStyle=orthogonalEdgeStyle;rounded=0;orthogonalLoop=1;jettySize=auto;html=1;entryX=0.5;entryY=0;entryDx=0;entryDy=0;" edge="1" parent="WIyWlLk6GJQsqaUBKTNV-1" source="bD7i3Z7t6EMsV-FZN9qI-243" target="bD7i3Z7t6EMsV-FZN9qI-247">
          <mxGeometry relative="1" as="geometry" />
        </mxCell>
        <mxCell id="bD7i3Z7t6EMsV-FZN9qI-243" value="Excel" style="strokeWidth=2;html=1;shape=mxgraph.flowchart.multi-document;whiteSpace=wrap;" vertex="1" parent="WIyWlLk6GJQsqaUBKTNV-1">
          <mxGeometry x="930" y="70" width="88" height="60" as="geometry" />
        </mxCell>
        <mxCell id="bD7i3Z7t6EMsV-FZN9qI-244" style="edgeStyle=orthogonalEdgeStyle;rounded=0;orthogonalLoop=1;jettySize=auto;html=1;entryX=0.5;entryY=0;entryDx=0;entryDy=0;entryPerimeter=0;" edge="1" parent="WIyWlLk6GJQsqaUBKTNV-1" source="bD7i3Z7t6EMsV-FZN9qI-239" target="bD7i3Z7t6EMsV-FZN9qI-243">
          <mxGeometry relative="1" as="geometry" />
        </mxCell>
        <mxCell id="bD7i3Z7t6EMsV-FZN9qI-245" value="数据包" style="edgeLabel;html=1;align=center;verticalAlign=middle;resizable=0;points=[];" vertex="1" connectable="0" parent="bD7i3Z7t6EMsV-FZN9qI-244">
          <mxGeometry x="-0.2826" y="-2" relative="1" as="geometry">
            <mxPoint y="-2" as="offset" />
          </mxGeometry>
        </mxCell>
        <mxCell id="bD7i3Z7t6EMsV-FZN9qI-246" style="edgeStyle=orthogonalEdgeStyle;rounded=0;orthogonalLoop=1;jettySize=auto;html=1;entryX=0.5;entryY=0;entryDx=0;entryDy=0;" edge="1" parent="WIyWlLk6GJQsqaUBKTNV-1" source="bD7i3Z7t6EMsV-FZN9qI-247" target="bD7i3Z7t6EMsV-FZN9qI-217">
          <mxGeometry relative="1" as="geometry" />
        </mxCell>
        <mxCell id="bD7i3Z7t6EMsV-FZN9qI-247" value="取一个&lt;br&gt;邮箱" style="shape=cylinder;whiteSpace=wrap;html=1;boundedLbl=1;backgroundOutline=1;" vertex="1" parent="WIyWlLk6GJQsqaUBKTNV-1">
          <mxGeometry x="790" y="182" width="60" height="80" as="geometry" />
        </mxCell>
        <mxCell id="bD7i3Z7t6EMsV-FZN9qI-248" style="edgeStyle=orthogonalEdgeStyle;rounded=0;orthogonalLoop=1;jettySize=auto;html=1;exitX=0;exitY=0.5;exitDx=0;exitDy=0;entryX=0.5;entryY=0;entryDx=0;entryDy=0;" edge="1" parent="WIyWlLk6GJQsqaUBKTNV-1" source="bD7i3Z7t6EMsV-FZN9qI-252" target="bD7i3Z7t6EMsV-FZN9qI-225">
          <mxGeometry relative="1" as="geometry" />
        </mxCell>
        <mxCell id="bD7i3Z7t6EMsV-FZN9qI-249" value="分群" style="edgeLabel;html=1;align=center;verticalAlign=middle;resizable=0;points=[];" vertex="1" connectable="0" parent="bD7i3Z7t6EMsV-FZN9qI-248">
          <mxGeometry x="-0.3727" y="3" relative="1" as="geometry">
            <mxPoint y="-4" as="offset" />
          </mxGeometry>
        </mxCell>
        <mxCell id="bD7i3Z7t6EMsV-FZN9qI-250" style="edgeStyle=orthogonalEdgeStyle;rounded=0;orthogonalLoop=1;jettySize=auto;html=1;" edge="1" parent="WIyWlLk6GJQsqaUBKTNV-1" source="bD7i3Z7t6EMsV-FZN9qI-252" target="bD7i3Z7t6EMsV-FZN9qI-226">
          <mxGeometry relative="1" as="geometry" />
        </mxCell>
        <mxCell id="bD7i3Z7t6EMsV-FZN9qI-251" value="数据包" style="edgeLabel;html=1;align=center;verticalAlign=middle;resizable=0;points=[];" vertex="1" connectable="0" parent="bD7i3Z7t6EMsV-FZN9qI-250">
          <mxGeometry x="-0.5982" y="3" relative="1" as="geometry">
            <mxPoint y="2" as="offset" />
          </mxGeometry>
        </mxCell>
        <mxCell id="bD7i3Z7t6EMsV-FZN9qI-252" value="分群or数据包?" style="rhombus;whiteSpace=wrap;html=1;shadow=0;fontFamily=Helvetica;fontSize=12;align=center;strokeWidth=1;spacing=6;spacingTop=-4;" vertex="1" parent="WIyWlLk6GJQsqaUBKTNV-1">
          <mxGeometry x="770" y="1100" width="100" height="80" as="geometry" />
        </mxCell>
        <mxCell id="bD7i3Z7t6EMsV-FZN9qI-253" value="" style="edgeStyle=orthogonalEdgeStyle;rounded=0;orthogonalLoop=1;jettySize=auto;html=1;" edge="1" parent="WIyWlLk6GJQsqaUBKTNV-1" source="bD7i3Z7t6EMsV-FZN9qI-254" target="bD7i3Z7t6EMsV-FZN9qI-252">
          <mxGeometry relative="1" as="geometry" />
        </mxCell>
        <mxCell id="bD7i3Z7t6EMsV-FZN9qI-254" value="Amazon S3" style="sketch=0;outlineConnect=0;fontColor=#232F3E;gradientColor=none;strokeColor=#ffffff;fillColor=#232F3E;dashed=0;verticalLabelPosition=middle;verticalAlign=bottom;align=center;html=1;whiteSpace=wrap;fontSize=10;fontStyle=1;spacing=3;shape=mxgraph.aws4.productIcon;prIcon=mxgraph.aws4.s3;" vertex="1" parent="WIyWlLk6GJQsqaUBKTNV-1">
          <mxGeometry x="780" y="905" width="80" height="100" as="geometry" />
        </mxCell>
        <mxCell id="bD7i3Z7t6EMsV-FZN9qI-255" style="edgeStyle=orthogonalEdgeStyle;rounded=0;orthogonalLoop=1;jettySize=auto;html=1;entryX=0.5;entryY=0;entryDx=0;entryDy=0;entryPerimeter=0;" edge="1" parent="WIyWlLk6GJQsqaUBKTNV-1" source="bD7i3Z7t6EMsV-FZN9qI-225" target="bD7i3Z7t6EMsV-FZN9qI-229">
          <mxGeometry relative="1" as="geometry" />
        </mxCell>
        <mxCell id="bD7i3Z7t6EMsV-FZN9qI-256" style="edgeStyle=orthogonalEdgeStyle;rounded=0;orthogonalLoop=1;jettySize=auto;html=1;entryX=0.5;entryY=0;entryDx=0;entryDy=0;entryPerimeter=0;" edge="1" parent="WIyWlLk6GJQsqaUBKTNV-1" source="bD7i3Z7t6EMsV-FZN9qI-226" target="bD7i3Z7t6EMsV-FZN9qI-229">
          <mxGeometry relative="1" as="geometry" />
        </mxCell>
        <mxCell id="bD7i3Z7t6EMsV-FZN9qI-257" value="" style="edgeStyle=orthogonalEdgeStyle;rounded=0;orthogonalLoop=1;jettySize=auto;html=1;" edge="1" parent="WIyWlLk6GJQsqaUBKTNV-1" source="bD7i3Z7t6EMsV-FZN9qI-261" target="bD7i3Z7t6EMsV-FZN9qI-266">
          <mxGeometry relative="1" as="geometry" />
        </mxCell>
        <mxCell id="bD7i3Z7t6EMsV-FZN9qI-258" value="Y" style="edgeLabel;html=1;align=center;verticalAlign=middle;resizable=0;points=[];" vertex="1" connectable="0" parent="bD7i3Z7t6EMsV-FZN9qI-257">
          <mxGeometry x="-0.3168" y="-2" relative="1" as="geometry">
            <mxPoint as="offset" />
          </mxGeometry>
        </mxCell>
        <mxCell id="bD7i3Z7t6EMsV-FZN9qI-259" style="edgeStyle=orthogonalEdgeStyle;rounded=0;orthogonalLoop=1;jettySize=auto;html=1;entryX=1;entryY=0.5;entryDx=0;entryDy=0;exitX=1;exitY=0.5;exitDx=0;exitDy=0;" edge="1" parent="WIyWlLk6GJQsqaUBKTNV-1" source="bD7i3Z7t6EMsV-FZN9qI-261" target="bD7i3Z7t6EMsV-FZN9qI-291">
          <mxGeometry relative="1" as="geometry">
            <Array as="points">
              <mxPoint x="1620" y="359" />
              <mxPoint x="1620" y="222" />
            </Array>
          </mxGeometry>
        </mxCell>
        <mxCell id="bD7i3Z7t6EMsV-FZN9qI-260" value="N" style="edgeLabel;html=1;align=center;verticalAlign=middle;resizable=0;points=[];" vertex="1" connectable="0" parent="bD7i3Z7t6EMsV-FZN9qI-259">
          <mxGeometry x="-0.7981" relative="1" as="geometry">
            <mxPoint as="offset" />
          </mxGeometry>
        </mxCell>
        <mxCell id="bD7i3Z7t6EMsV-FZN9qI-261" value="通过用户ID&lt;br&gt;过滤规则?" style="rhombus;whiteSpace=wrap;html=1;shadow=0;fontFamily=Helvetica;fontSize=12;align=center;strokeWidth=1;spacing=6;spacingTop=-4;" vertex="1" parent="WIyWlLk6GJQsqaUBKTNV-1">
          <mxGeometry x="1390" y="319" width="100" height="80" as="geometry" />
        </mxCell>
        <mxCell id="bD7i3Z7t6EMsV-FZN9qI-262" value="" style="edgeStyle=orthogonalEdgeStyle;rounded=0;orthogonalLoop=1;jettySize=auto;html=1;" edge="1" parent="WIyWlLk6GJQsqaUBKTNV-1" source="bD7i3Z7t6EMsV-FZN9qI-266" target="bD7i3Z7t6EMsV-FZN9qI-268">
          <mxGeometry relative="1" as="geometry" />
        </mxCell>
        <mxCell id="bD7i3Z7t6EMsV-FZN9qI-263" value="Y" style="edgeLabel;html=1;align=center;verticalAlign=middle;resizable=0;points=[];" vertex="1" connectable="0" parent="bD7i3Z7t6EMsV-FZN9qI-262">
          <mxGeometry x="-0.2" y="-1" relative="1" as="geometry">
            <mxPoint as="offset" />
          </mxGeometry>
        </mxCell>
        <mxCell id="bD7i3Z7t6EMsV-FZN9qI-264" style="edgeStyle=orthogonalEdgeStyle;rounded=0;orthogonalLoop=1;jettySize=auto;html=1;entryX=1;entryY=0.5;entryDx=0;entryDy=0;exitX=1;exitY=0.5;exitDx=0;exitDy=0;" edge="1" parent="WIyWlLk6GJQsqaUBKTNV-1" source="bD7i3Z7t6EMsV-FZN9qI-266" target="bD7i3Z7t6EMsV-FZN9qI-291">
          <mxGeometry relative="1" as="geometry">
            <Array as="points">
              <mxPoint x="1620" y="536" />
              <mxPoint x="1620" y="222" />
            </Array>
          </mxGeometry>
        </mxCell>
        <mxCell id="bD7i3Z7t6EMsV-FZN9qI-265" value="N" style="edgeLabel;html=1;align=center;verticalAlign=middle;resizable=0;points=[];" vertex="1" connectable="0" parent="bD7i3Z7t6EMsV-FZN9qI-264">
          <mxGeometry x="-0.8674" relative="1" as="geometry">
            <mxPoint as="offset" />
          </mxGeometry>
        </mxCell>
        <mxCell id="bD7i3Z7t6EMsV-FZN9qI-266" value="通过用户ID&lt;br&gt;黑名单bitmap?" style="rhombus;whiteSpace=wrap;html=1;shadow=0;fontFamily=Helvetica;fontSize=12;align=center;strokeWidth=1;spacing=6;spacingTop=-4;" vertex="1" parent="WIyWlLk6GJQsqaUBKTNV-1">
          <mxGeometry x="1390" y="496" width="100" height="80" as="geometry" />
        </mxCell>
        <mxCell id="bD7i3Z7t6EMsV-FZN9qI-267" style="edgeStyle=orthogonalEdgeStyle;rounded=0;orthogonalLoop=1;jettySize=auto;html=1;entryX=0.5;entryY=0;entryDx=0;entryDy=0;" edge="1" parent="WIyWlLk6GJQsqaUBKTNV-1" source="bD7i3Z7t6EMsV-FZN9qI-268" target="bD7i3Z7t6EMsV-FZN9qI-280">
          <mxGeometry relative="1" as="geometry" />
        </mxCell>
        <mxCell id="bD7i3Z7t6EMsV-FZN9qI-268" value="分批写本地文件" style="strokeWidth=2;html=1;shape=mxgraph.flowchart.document2;whiteSpace=wrap;size=0.25;direction=east;" vertex="1" parent="WIyWlLk6GJQsqaUBKTNV-1">
          <mxGeometry x="1390" y="645" width="100" height="60" as="geometry" />
        </mxCell>
        <mxCell id="bD7i3Z7t6EMsV-FZN9qI-269" value="分群表" style="shape=datastore;whiteSpace=wrap;html=1;" vertex="1" parent="WIyWlLk6GJQsqaUBKTNV-1">
          <mxGeometry x="1260" y="1260" width="60" height="60" as="geometry" />
        </mxCell>
        <mxCell id="bD7i3Z7t6EMsV-FZN9qI-270" value="数据包表" style="shape=datastore;whiteSpace=wrap;html=1;" vertex="1" parent="WIyWlLk6GJQsqaUBKTNV-1">
          <mxGeometry x="1564" y="1260" width="60" height="60" as="geometry" />
        </mxCell>
        <mxCell id="bD7i3Z7t6EMsV-FZN9qI-271" value="" style="edgeStyle=orthogonalEdgeStyle;rounded=0;orthogonalLoop=1;jettySize=auto;html=1;" edge="1" parent="WIyWlLk6GJQsqaUBKTNV-1" source="bD7i3Z7t6EMsV-FZN9qI-272" target="bD7i3Z7t6EMsV-FZN9qI-283">
          <mxGeometry relative="1" as="geometry" />
        </mxCell>
        <mxCell id="bD7i3Z7t6EMsV-FZN9qI-272" value="用户ID更新任务" style="strokeWidth=2;html=1;shape=mxgraph.flowchart.terminator;whiteSpace=wrap;" vertex="1" parent="WIyWlLk6GJQsqaUBKTNV-1">
          <mxGeometry x="1380" y="-170" width="100" height="60" as="geometry" />
        </mxCell>
        <mxCell id="bD7i3Z7t6EMsV-FZN9qI-273" value="结束" style="strokeWidth=2;html=1;shape=mxgraph.flowchart.terminator;whiteSpace=wrap;" vertex="1" parent="WIyWlLk6GJQsqaUBKTNV-1">
          <mxGeometry x="1390" y="1440" width="100" height="60" as="geometry" />
        </mxCell>
        <mxCell id="bD7i3Z7t6EMsV-FZN9qI-274" style="edgeStyle=orthogonalEdgeStyle;rounded=0;orthogonalLoop=1;jettySize=auto;html=1;entryX=0;entryY=0.5;entryDx=0;entryDy=0;" edge="1" parent="WIyWlLk6GJQsqaUBKTNV-1" source="bD7i3Z7t6EMsV-FZN9qI-276" target="bD7i3Z7t6EMsV-FZN9qI-266">
          <mxGeometry relative="1" as="geometry" />
        </mxCell>
        <mxCell id="bD7i3Z7t6EMsV-FZN9qI-275" value="变更同步" style="edgeLabel;html=1;align=center;verticalAlign=middle;resizable=0;points=[];" vertex="1" connectable="0" parent="bD7i3Z7t6EMsV-FZN9qI-274">
          <mxGeometry x="-0.0833" y="-3" relative="1" as="geometry">
            <mxPoint y="-3" as="offset" />
          </mxGeometry>
        </mxCell>
        <mxCell id="bD7i3Z7t6EMsV-FZN9qI-276" value="黑名单表" style="shape=datastore;whiteSpace=wrap;html=1;" vertex="1" parent="WIyWlLk6GJQsqaUBKTNV-1">
          <mxGeometry x="1200" y="506" width="60" height="60" as="geometry" />
        </mxCell>
        <mxCell id="bD7i3Z7t6EMsV-FZN9qI-277" style="edgeStyle=orthogonalEdgeStyle;rounded=0;orthogonalLoop=1;jettySize=auto;html=1;entryX=1;entryY=0.5;entryDx=0;entryDy=0;exitX=1;exitY=0.5;exitDx=0;exitDy=0;" edge="1" parent="WIyWlLk6GJQsqaUBKTNV-1" source="bD7i3Z7t6EMsV-FZN9qI-280" target="bD7i3Z7t6EMsV-FZN9qI-291">
          <mxGeometry relative="1" as="geometry">
            <Array as="points">
              <mxPoint x="1620" y="795" />
              <mxPoint x="1620" y="222" />
            </Array>
          </mxGeometry>
        </mxCell>
        <mxCell id="bD7i3Z7t6EMsV-FZN9qI-278" value="Y" style="edgeLabel;html=1;align=center;verticalAlign=middle;resizable=0;points=[];" vertex="1" connectable="0" parent="bD7i3Z7t6EMsV-FZN9qI-277">
          <mxGeometry x="-0.9017" relative="1" as="geometry">
            <mxPoint as="offset" />
          </mxGeometry>
        </mxCell>
        <mxCell id="bD7i3Z7t6EMsV-FZN9qI-279" value="" style="edgeStyle=orthogonalEdgeStyle;rounded=0;orthogonalLoop=1;jettySize=auto;html=1;" edge="1" parent="WIyWlLk6GJQsqaUBKTNV-1" source="bD7i3Z7t6EMsV-FZN9qI-280" target="bD7i3Z7t6EMsV-FZN9qI-298">
          <mxGeometry relative="1" as="geometry" />
        </mxCell>
        <mxCell id="bD7i3Z7t6EMsV-FZN9qI-280" value="是否&lt;br&gt;处理完？" style="rhombus;whiteSpace=wrap;html=1;shadow=0;fontFamily=Helvetica;fontSize=12;align=center;strokeWidth=1;spacing=6;spacingTop=-4;" vertex="1" parent="WIyWlLk6GJQsqaUBKTNV-1">
          <mxGeometry x="1390" y="755" width="100" height="80" as="geometry" />
        </mxCell>
        <mxCell id="bD7i3Z7t6EMsV-FZN9qI-281" style="edgeStyle=orthogonalEdgeStyle;rounded=0;orthogonalLoop=1;jettySize=auto;html=1;exitX=0;exitY=0.5;exitDx=0;exitDy=0;entryX=0.5;entryY=0;entryDx=0;entryDy=0;" edge="1" parent="WIyWlLk6GJQsqaUBKTNV-1" source="bD7i3Z7t6EMsV-FZN9qI-283" target="bD7i3Z7t6EMsV-FZN9qI-285">
          <mxGeometry relative="1" as="geometry" />
        </mxCell>
        <mxCell id="bD7i3Z7t6EMsV-FZN9qI-282" value="分群" style="edgeLabel;html=1;align=center;verticalAlign=middle;resizable=0;points=[];" vertex="1" connectable="0" parent="bD7i3Z7t6EMsV-FZN9qI-281">
          <mxGeometry x="-0.1" y="3" relative="1" as="geometry">
            <mxPoint y="-3" as="offset" />
          </mxGeometry>
        </mxCell>
        <mxCell id="bD7i3Z7t6EMsV-FZN9qI-283" value="分群or数据包?" style="rhombus;whiteSpace=wrap;html=1;shadow=0;fontFamily=Helvetica;fontSize=12;align=center;strokeWidth=1;spacing=6;spacingTop=-4;" vertex="1" parent="WIyWlLk6GJQsqaUBKTNV-1">
          <mxGeometry x="1380" y="-50" width="100" height="80" as="geometry" />
        </mxCell>
        <mxCell id="bD7i3Z7t6EMsV-FZN9qI-284" style="edgeStyle=orthogonalEdgeStyle;rounded=0;orthogonalLoop=1;jettySize=auto;html=1;entryX=0.5;entryY=0;entryDx=0;entryDy=0;" edge="1" parent="WIyWlLk6GJQsqaUBKTNV-1" source="bD7i3Z7t6EMsV-FZN9qI-285" target="bD7i3Z7t6EMsV-FZN9qI-291">
          <mxGeometry relative="1" as="geometry" />
        </mxCell>
        <mxCell id="bD7i3Z7t6EMsV-FZN9qI-285" value="大数据" style="shape=datastore;whiteSpace=wrap;html=1;" vertex="1" parent="WIyWlLk6GJQsqaUBKTNV-1">
          <mxGeometry x="1250" y="70" width="60" height="60" as="geometry" />
        </mxCell>
        <mxCell id="bD7i3Z7t6EMsV-FZN9qI-286" style="edgeStyle=orthogonalEdgeStyle;rounded=0;orthogonalLoop=1;jettySize=auto;html=1;entryX=0.5;entryY=0;entryDx=0;entryDy=0;" edge="1" parent="WIyWlLk6GJQsqaUBKTNV-1" source="bD7i3Z7t6EMsV-FZN9qI-287" target="bD7i3Z7t6EMsV-FZN9qI-291">
          <mxGeometry relative="1" as="geometry" />
        </mxCell>
        <mxCell id="bD7i3Z7t6EMsV-FZN9qI-287" value="Excel" style="strokeWidth=2;html=1;shape=mxgraph.flowchart.multi-document;whiteSpace=wrap;" vertex="1" parent="WIyWlLk6GJQsqaUBKTNV-1">
          <mxGeometry x="1550" y="70" width="88" height="60" as="geometry" />
        </mxCell>
        <mxCell id="bD7i3Z7t6EMsV-FZN9qI-288" style="edgeStyle=orthogonalEdgeStyle;rounded=0;orthogonalLoop=1;jettySize=auto;html=1;entryX=0.5;entryY=0;entryDx=0;entryDy=0;entryPerimeter=0;" edge="1" parent="WIyWlLk6GJQsqaUBKTNV-1" source="bD7i3Z7t6EMsV-FZN9qI-283" target="bD7i3Z7t6EMsV-FZN9qI-287">
          <mxGeometry relative="1" as="geometry" />
        </mxCell>
        <mxCell id="bD7i3Z7t6EMsV-FZN9qI-289" value="数据包" style="edgeLabel;html=1;align=center;verticalAlign=middle;resizable=0;points=[];" vertex="1" connectable="0" parent="bD7i3Z7t6EMsV-FZN9qI-288">
          <mxGeometry x="-0.2826" y="-2" relative="1" as="geometry">
            <mxPoint y="-2" as="offset" />
          </mxGeometry>
        </mxCell>
        <mxCell id="bD7i3Z7t6EMsV-FZN9qI-290" style="edgeStyle=orthogonalEdgeStyle;rounded=0;orthogonalLoop=1;jettySize=auto;html=1;entryX=0.5;entryY=0;entryDx=0;entryDy=0;" edge="1" parent="WIyWlLk6GJQsqaUBKTNV-1" source="bD7i3Z7t6EMsV-FZN9qI-291" target="bD7i3Z7t6EMsV-FZN9qI-261">
          <mxGeometry relative="1" as="geometry" />
        </mxCell>
        <mxCell id="bD7i3Z7t6EMsV-FZN9qI-291" value="取一个&lt;br&gt;用户ID" style="shape=cylinder;whiteSpace=wrap;html=1;boundedLbl=1;backgroundOutline=1;" vertex="1" parent="WIyWlLk6GJQsqaUBKTNV-1">
          <mxGeometry x="1410" y="182" width="60" height="80" as="geometry" />
        </mxCell>
        <mxCell id="bD7i3Z7t6EMsV-FZN9qI-292" style="edgeStyle=orthogonalEdgeStyle;rounded=0;orthogonalLoop=1;jettySize=auto;html=1;exitX=0;exitY=0.5;exitDx=0;exitDy=0;entryX=0.5;entryY=0;entryDx=0;entryDy=0;" edge="1" parent="WIyWlLk6GJQsqaUBKTNV-1" source="bD7i3Z7t6EMsV-FZN9qI-296" target="bD7i3Z7t6EMsV-FZN9qI-269">
          <mxGeometry relative="1" as="geometry" />
        </mxCell>
        <mxCell id="bD7i3Z7t6EMsV-FZN9qI-293" value="分群" style="edgeLabel;html=1;align=center;verticalAlign=middle;resizable=0;points=[];" vertex="1" connectable="0" parent="bD7i3Z7t6EMsV-FZN9qI-292">
          <mxGeometry x="-0.3727" y="3" relative="1" as="geometry">
            <mxPoint y="-4" as="offset" />
          </mxGeometry>
        </mxCell>
        <mxCell id="bD7i3Z7t6EMsV-FZN9qI-294" style="edgeStyle=orthogonalEdgeStyle;rounded=0;orthogonalLoop=1;jettySize=auto;html=1;" edge="1" parent="WIyWlLk6GJQsqaUBKTNV-1" source="bD7i3Z7t6EMsV-FZN9qI-296" target="bD7i3Z7t6EMsV-FZN9qI-270">
          <mxGeometry relative="1" as="geometry" />
        </mxCell>
        <mxCell id="bD7i3Z7t6EMsV-FZN9qI-295" value="数据包" style="edgeLabel;html=1;align=center;verticalAlign=middle;resizable=0;points=[];" vertex="1" connectable="0" parent="bD7i3Z7t6EMsV-FZN9qI-294">
          <mxGeometry x="-0.5982" y="3" relative="1" as="geometry">
            <mxPoint y="2" as="offset" />
          </mxGeometry>
        </mxCell>
        <mxCell id="bD7i3Z7t6EMsV-FZN9qI-296" value="分群or数据包?" style="rhombus;whiteSpace=wrap;html=1;shadow=0;fontFamily=Helvetica;fontSize=12;align=center;strokeWidth=1;spacing=6;spacingTop=-4;" vertex="1" parent="WIyWlLk6GJQsqaUBKTNV-1">
          <mxGeometry x="1390" y="1100" width="100" height="80" as="geometry" />
        </mxCell>
        <mxCell id="bD7i3Z7t6EMsV-FZN9qI-297" value="" style="edgeStyle=orthogonalEdgeStyle;rounded=0;orthogonalLoop=1;jettySize=auto;html=1;" edge="1" parent="WIyWlLk6GJQsqaUBKTNV-1" source="bD7i3Z7t6EMsV-FZN9qI-298" target="bD7i3Z7t6EMsV-FZN9qI-296">
          <mxGeometry relative="1" as="geometry" />
        </mxCell>
        <mxCell id="bD7i3Z7t6EMsV-FZN9qI-298" value="Amazon S3" style="sketch=0;outlineConnect=0;fontColor=#232F3E;gradientColor=none;strokeColor=#ffffff;fillColor=#232F3E;dashed=0;verticalLabelPosition=middle;verticalAlign=bottom;align=center;html=1;whiteSpace=wrap;fontSize=10;fontStyle=1;spacing=3;shape=mxgraph.aws4.productIcon;prIcon=mxgraph.aws4.s3;" vertex="1" parent="WIyWlLk6GJQsqaUBKTNV-1">
          <mxGeometry x="1400" y="905" width="80" height="100" as="geometry" />
        </mxCell>
        <mxCell id="bD7i3Z7t6EMsV-FZN9qI-299" style="edgeStyle=orthogonalEdgeStyle;rounded=0;orthogonalLoop=1;jettySize=auto;html=1;entryX=0.5;entryY=0;entryDx=0;entryDy=0;entryPerimeter=0;" edge="1" parent="WIyWlLk6GJQsqaUBKTNV-1" source="bD7i3Z7t6EMsV-FZN9qI-269" target="bD7i3Z7t6EMsV-FZN9qI-273">
          <mxGeometry relative="1" as="geometry" />
        </mxCell>
        <mxCell id="bD7i3Z7t6EMsV-FZN9qI-300" style="edgeStyle=orthogonalEdgeStyle;rounded=0;orthogonalLoop=1;jettySize=auto;html=1;entryX=0.5;entryY=0;entryDx=0;entryDy=0;entryPerimeter=0;" edge="1" parent="WIyWlLk6GJQsqaUBKTNV-1" source="bD7i3Z7t6EMsV-FZN9qI-270" target="bD7i3Z7t6EMsV-FZN9qI-273">
          <mxGeometry relative="1" as="geometry" />
        </mxCell>
      </root>
    </mxGraphModel>
  </diagram>
</mxfile>
